<svg width="32" height="32" viewBox="0 0 32 32" fill="none" xmlns="http://www.w3.org/2000/svg">
  <!-- Background circle with gradient -->
  <defs>
    <linearGradient id="bgGradient" x1="0%" y1="0%" x2="100%" y2="100%">
      <stop offset="0%" style="stop-color:#3B82F6;stop-opacity:1" />
      <stop offset="100%" style="stop-color:#1D4ED8;stop-opacity:1" />
    </linearGradient>
    <linearGradient id="checkGradient" x1="0%" y1="0%" x2="100%" y2="100%">
      <stop offset="0%" style="stop-color:#10B981;stop-opacity:1" />
      <stop offset="100%" style="stop-color:#059669;stop-opacity:1" />
    </linearGradient>
  </defs>
  
  <!-- Main background circle -->
  <circle cx="16" cy="16" r="15" fill="url(#bgGradient)" stroke="#1E40AF" stroke-width="0.5"/>
  
  <!-- Markdown symbol (stylized M) -->
  <path d="M8 10 L8 22 L10 22 L10 14 L12 16 L14 14 L14 22 L16 22 L16 10 L14 10 L12 12.5 L10 10 Z" fill="white" opacity="0.9"/>
  
  <!-- Todo checkmark -->
  <circle cx="22" cy="12" r="4" fill="url(#checkGradient)" stroke="white" stroke-width="1"/>
  <path d="M20 12 L21.5 13.5 L24 11" stroke="white" stroke-width="1.5" stroke-linecap="round" stroke-linejoin="round" fill="none"/>
  
  <!-- Subtle list lines to represent todos -->
  <rect x="18" y="20" width="8" height="1" rx="0.5" fill="white" opacity="0.6"/>
  <rect x="18" y="22" width="6" height="1" rx="0.5" fill="white" opacity="0.4"/>
  <rect x="18" y="24" width="7" height="1" rx="0.5" fill="white" opacity="0.3"/>
</svg>